<svg width="57" height="69" viewBox="0 0 57 69" fill="none" xmlns="http://www.w3.org/2000/svg">
<path d="M28.125 0L53.8028 5.70619C55.2328 6.02394 56.25 7.29209 56.25 8.75678V39.9653C56.25 46.2344 53.1169 52.0888 47.9006 55.5662L28.125 68.75L8.34938 55.5662C3.13316 52.0888 0 46.2344 0 39.9653V8.75678C0 7.29209 1.01728 6.02394 2.44709 5.70619L28.125 0ZM28.125 18.75C24.6731 18.75 21.875 21.5482 21.875 25C21.875 27.3133 23.1319 29.3331 24.9997 30.4137L25 43.75H31.25L31.2534 30.4119C33.1197 29.3306 34.375 27.312 34.375 25C34.375 21.5482 31.5769 18.75 28.125 18.75Z" fill="black"/>
</svg>
