<svg width="16" height="26" viewBox="0 0 16 26" fill="none" xmlns="http://www.w3.org/2000/svg">
<path d="M7.84797 1.45435e-05C10.224 1.45435e-05 12.144 0.672014 13.608 2.01601C15.072 3.36001 15.804 5.16001 15.804 7.41602C15.804 9.93602 15.024 11.808 13.464 13.032C11.904 14.232 9.79197 14.832 7.12797 14.832L7.01997 18.252H4.17597L4.03197 12.564H5.07597C7.45197 12.564 9.31197 12.204 10.656 11.484C12 10.764 12.672 9.40802 12.672 7.41602C12.672 5.97602 12.24 4.83602 11.376 3.99601C10.512 3.15601 9.34797 2.73601 7.88397 2.73601C6.39597 2.73601 5.21997 3.14401 4.35597 3.96002C3.51597 4.75201 3.09597 5.84402 3.09597 7.23602H-3.12328e-05C-3.12328e-05 5.79602 0.323969 4.53602 0.971969 3.45602C1.61997 2.35202 2.53197 1.50001 3.70797 0.900014C4.90797 0.300014 6.28797 1.45435e-05 7.84797 1.45435e-05ZM5.57997 25.632C4.95597 25.632 4.42797 25.416 3.99597 24.984C3.56397 24.552 3.34797 24.024 3.34797 23.4C3.34797 22.776 3.56397 22.248 3.99597 21.816C4.42797 21.384 4.95597 21.168 5.57997 21.168C6.17997 21.168 6.68397 21.384 7.09197 21.816C7.52397 22.248 7.73997 22.776 7.73997 23.4C7.73997 24.024 7.52397 24.552 7.09197 24.984C6.68397 25.416 6.17997 25.632 5.57997 25.632Z" fill="#282828"/>
</svg>
