<svg width="26" height="24" viewBox="0 0 26 24" fill="none" xmlns="http://www.w3.org/2000/svg">
<path d="M13.3281 0.232837C12.8935 -0.0776125 12.3096 -0.0776125 11.875 0.232837L0 8.71498L1.4531 10.7492L12.6015 2.78612L23.75 10.7492L25.2031 8.71498L13.3281 0.232837ZM22.0781 12.7329L13.3281 6.48284C12.8935 6.17239 12.3096 6.17239 11.875 6.48284L3.125 12.7329C2.79651 12.9675 2.60155 13.3462 2.60155 13.75V21.875C2.60155 22.5654 3.16119 23.125 3.85155 23.125H21.3515C22.0419 23.125 22.6015 22.5654 22.6015 21.875V13.75C22.6015 13.3462 22.4066 12.9675 22.0781 12.7329ZM5.10155 20.625V14.3932L12.6015 9.03613L20.1015 14.3932V20.625H5.10155Z" fill="black"/>
</svg>
