<svg width="20" height="20" viewBox="0 0 20 20" fill="none" xmlns="http://www.w3.org/2000/svg">
<path d="M10.0087 4.90461C9.83279 4.90461 9.65883 4.91358 9.48745 4.93114C9.31606 4.94869 9.14703 4.97471 8.98089 5.00885C8.81475 5.043 8.65156 5.08529 8.49164 5.13521L8.02224 5.30756L7.57534 5.52335L7.15361 5.77996L6.75957 6.07469L6.39596 6.40499L6.06535 6.76828L5.77029 7.16187L5.51336 7.58321L5.29745 8.0296C5.23254 8.18228 5.17481 8.33882 5.12483 8.49861C5.07486 8.6584 5.03257 8.82153 4.99835 8.98749C4.96414 9.15343 4.93813 9.32225 4.9205 9.49353C4.90289 9.66479 4.89404 9.83855 4.89404 10.0142C4.89404 10.1899 4.90301 10.3637 4.9205 10.5349C4.9379 10.7049 4.96388 10.8738 4.99835 11.0411C5.03257 11.2076 5.07486 11.3701 5.12483 11.5299C5.17481 11.6897 5.23247 11.8462 5.29745 11.9989L5.51336 12.4453L5.77029 12.8666L6.06535 13.2603L6.39596 13.6236L6.75957 13.9539L7.15361 14.2486L7.57534 14.5051L8.02224 14.721L8.49164 14.8933L8.98089 15.0197C9.14832 15.0542 9.31739 15.0801 9.48745 15.0975C9.66063 15.1151 9.8346 15.124 10.0087 15.1239C10.1845 15.1239 10.3585 15.115 10.5298 15.0975C10.6999 15.0801 10.869 15.0542 11.0364 15.0197L11.5257 14.8933L11.9951 14.721L12.4419 14.5051L12.8637 14.2486L13.2578 13.9539L13.6214 13.6236L13.9521 13.2603L14.2471 12.8666L14.5041 12.4453L14.72 11.9989L14.8925 11.5299C14.9425 11.3701 14.9849 11.207 15.0191 11.0411L15.0968 10.5349C15.1145 10.3636 15.1234 10.1899 15.1234 10.0142C15.1234 9.83849 15.1145 9.66472 15.0968 9.49346C15.0795 9.32357 15.0535 9.15468 15.0191 8.98742C14.9849 8.82083 14.9425 8.6584 14.8925 8.49854L14.72 8.02954L14.5041 7.58314L14.2471 7.1618L13.9521 6.76821L13.6214 6.40492L13.2578 6.07462L12.8637 5.7799L12.4419 5.52329L11.9951 5.3075L11.5257 5.13514L11.0364 5.00879L10.5298 4.93107C10.3567 4.91339 10.1827 4.9046 10.0087 4.90461ZM10.0087 6.66826C10.125 6.66826 10.2397 6.67403 10.3527 6.68543L10.6859 6.73586L11.0078 6.81786L11.3159 6.92981L11.6089 7.07012L11.8844 7.23703L12.142 7.42905L12.3795 7.64446L12.5951 7.88165L12.7873 8.13897L12.9544 8.41486L13.0947 8.70768C13.1369 8.80789 13.1743 8.9106 13.2068 9.01561C13.2394 9.12062 13.2667 9.22794 13.2888 9.33725C13.3109 9.44656 13.3273 9.55779 13.3393 9.67075L13.3564 10.0146C13.3564 10.1307 13.3507 10.2454 13.3393 10.3584C13.3279 10.4715 13.3111 10.5827 13.2888 10.6919C13.2666 10.8012 13.2392 10.9085 13.2068 11.0136L13.0947 11.3215L12.9544 11.6143L12.7873 11.8901L12.5951 12.1475L12.3795 12.3847L12.142 12.6001L11.8844 12.7922L11.6089 12.9591L11.3159 13.0994L11.0078 13.2113L10.6859 13.2933L10.3527 13.3437C10.2384 13.3551 10.1235 13.3609 10.0086 13.3609C9.89365 13.3609 9.77878 13.3551 9.66442 13.3437L9.33124 13.2933C9.22186 13.2712 9.11447 13.2437 9.00933 13.2113L8.70115 13.0994L8.40815 12.9591L8.13264 12.7922L7.87507 12.6001L7.63761 12.3847L7.42202 12.1475L7.22979 11.8901L7.0627 11.6143L6.92238 11.3215L6.81025 11.0136L6.72824 10.6919L6.67782 10.3584C6.66635 10.2442 6.66061 10.1294 6.66064 10.0146C6.66061 9.89973 6.66635 9.78499 6.67782 9.67075C6.68915 9.55779 6.706 9.44649 6.72824 9.33725C6.75025 9.22876 6.77764 9.12143 6.81032 9.01567L6.92245 8.70774L7.06277 8.41493L7.22986 8.13904L7.42207 7.88172L7.63768 7.64453L7.87513 7.42911L8.1327 7.2371L8.40821 7.07018L8.70121 6.92986C8.80206 6.88751 8.90495 6.85015 9.00946 6.81793L9.33136 6.73592C9.44074 6.71375 9.5521 6.69683 9.66454 6.6855C9.77892 6.67404 9.89372 6.66825 10.0087 6.66826Z" fill="url(#paint0_radial_192_372)"/>
<path d="M15.3307 3.45117C15.2902 3.45117 15.2496 3.45323 15.2092 3.45732C15.1688 3.46141 15.1286 3.46752 15.0888 3.47564C15.049 3.48377 15.0096 3.49388 14.9708 3.50595C14.932 3.51803 14.8939 3.53206 14.8564 3.54798C14.819 3.56392 14.7825 3.58174 14.7468 3.60135C14.7111 3.62094 14.6765 3.6423 14.6431 3.66537C14.6095 3.68845 14.5771 3.71321 14.5461 3.73956C14.515 3.76588 14.4853 3.79374 14.457 3.82305C14.4288 3.85237 14.402 3.8831 14.3767 3.91512C14.3514 3.94714 14.3278 3.98041 14.3058 4.01481C14.2839 4.04919 14.2638 4.08464 14.2453 4.12105C14.227 4.15748 14.2103 4.19481 14.1956 4.23292C14.1808 4.27101 14.1681 4.30982 14.1571 4.3492C14.1463 4.38859 14.1374 4.42849 14.1306 4.46877C14.1236 4.50903 14.1188 4.54962 14.1158 4.59038C14.1138 4.61924 14.1128 4.64819 14.1128 4.67713C14.1128 4.71802 14.1147 4.75888 14.1189 4.79957C14.1229 4.84024 14.129 4.88067 14.1371 4.92073C14.1452 4.96078 14.1552 5.00041 14.1671 5.03945C14.1792 5.07851 14.1931 5.11694 14.2089 5.15459C14.2247 5.19226 14.2424 5.2291 14.262 5.26499C14.2814 5.30087 14.3027 5.33574 14.3256 5.36949C14.3485 5.40321 14.3731 5.43576 14.3992 5.46701C14.4254 5.49828 14.4531 5.52823 14.4822 5.55671C14.5114 5.58519 14.5418 5.61217 14.5738 5.63757C14.6056 5.66299 14.6386 5.68678 14.6728 5.70888C14.707 5.73098 14.7422 5.75134 14.7783 5.76988C14.8146 5.78844 14.8517 5.80516 14.8895 5.81998C14.9274 5.8348 14.9658 5.84769 15.005 5.85862C15.0442 5.86953 15.0838 5.87848 15.1238 5.88539C15.1638 5.89235 15.2042 5.8973 15.2446 5.9002C15.2733 5.90226 15.3021 5.90327 15.3308 5.90328C15.3714 5.90328 15.4121 5.90126 15.4525 5.89719C15.4928 5.8931 15.5331 5.88699 15.5728 5.87887C15.6127 5.87076 15.652 5.86063 15.6908 5.84856C15.7296 5.83648 15.7678 5.82245 15.8052 5.80653C15.8425 5.7906 15.8792 5.77281 15.9147 5.75321C15.9504 5.73362 15.985 5.71223 16.0186 5.68914C16.0521 5.66607 16.0845 5.64134 16.1156 5.61502C16.1465 5.58867 16.1763 5.5608 16.2046 5.53146C16.2329 5.50214 16.2597 5.47141 16.2849 5.43939C16.3102 5.40737 16.3338 5.3741 16.3557 5.3397C16.3777 5.30531 16.3979 5.26982 16.4163 5.23341C16.4347 5.19696 16.4514 5.15963 16.4661 5.12153C16.4808 5.08344 16.4936 5.04463 16.5045 5.00524C16.5153 4.96587 16.5242 4.92596 16.5311 4.88569C16.5381 4.84542 16.5429 4.80482 16.5457 4.76407C16.5478 4.7352 16.5489 4.70627 16.5489 4.67732C16.5489 4.63645 16.5468 4.5956 16.5428 4.55494C16.5388 4.51427 16.5327 4.47384 16.5246 4.43378C16.5165 4.39373 16.5064 4.3541 16.4945 4.31506C16.4824 4.27601 16.4685 4.23757 16.4527 4.19992C16.4368 4.16226 16.4192 4.12541 16.3997 4.08952C16.3803 4.05364 16.359 4.01877 16.3361 3.98502C16.3131 3.95127 16.2885 3.91871 16.2624 3.88744C16.2361 3.85617 16.2085 3.82623 16.1795 3.79774C16.1503 3.76927 16.1197 3.74228 16.0879 3.71688C16.0561 3.69148 16.0231 3.6677 15.9889 3.64563C15.9547 3.62353 15.9195 3.60317 15.8832 3.58463C15.847 3.56607 15.8099 3.54935 15.7721 3.53453C15.7343 3.51971 15.6957 3.50682 15.6565 3.49589C15.6175 3.48495 15.5778 3.47599 15.5378 3.46905C15.4978 3.46212 15.4575 3.45719 15.417 3.45431C15.3882 3.45226 15.3595 3.45117 15.3307 3.45117Z" fill="url(#paint1_radial_192_372)"/>
<path d="M9.03873 0.0180086C8.48246 0.0171115 7.98603 0.0194179 7.54008 0.025697L6.3445 0.0577331C5.9903 0.0731103 5.67737 0.0931635 5.39648 0.119113C5.25604 0.132055 5.12354 0.146535 4.99796 0.16249C4.87844 0.177552 4.75927 0.195091 4.6405 0.215094C4.5274 0.234316 4.42008 0.255074 4.31718 0.277627C4.21429 0.300181 4.116 0.324529 4.02116 0.35067C3.92847 0.376233 3.83648 0.404351 3.74534 0.43499C3.65602 0.465104 3.56889 0.497012 3.48283 0.531098C3.31073 0.599272 3.14287 0.675772 2.97 0.761501C2.83698 0.827495 2.71409 0.894322 2.59736 0.965058C2.48062 1.03579 2.37003 1.1105 2.26175 1.19187C2.15023 1.27608 2.04275 1.3655 1.93966 1.45983C1.83189 1.55798 1.72182 1.66594 1.60744 1.78659C1.46373 1.93736 1.33885 2.07793 1.22801 2.21587C1.17258 2.28482 1.12069 2.353 1.0718 2.42155C1.02345 2.48911 0.977235 2.55818 0.933211 2.62862C0.889643 2.69847 0.84838 2.76959 0.808911 2.84276C0.768828 2.91719 0.730944 2.99279 0.695311 3.06944C0.622397 3.22604 0.554353 3.39468 0.486436 3.58293C0.436051 3.72208 0.390933 3.86311 0.351179 4.00566C0.310622 4.15137 0.27455 4.3038 0.242385 4.46865C0.210221 4.63351 0.182157 4.8108 0.157489 5.00686C0.130907 5.22177 0.109671 5.43732 0.0938016 5.65329C0.0758614 5.89073 0.0609967 6.15202 0.048823 6.44284L0.0199906 7.40983L0.00448503 8.58857L0 10.0133L0.0131348 12.0852L0.054141 13.655L0.0857285 14.2681L0.125197 14.7763C0.137849 14.9133 0.153679 15.0498 0.172675 15.186C0.189974 15.307 0.208555 15.4128 0.228546 15.5045C0.269108 15.6908 0.317072 15.8753 0.372324 16.0578C0.425226 16.2326 0.485725 16.4048 0.553647 16.5742C0.620411 16.7402 0.693453 16.9002 0.772903 17.0542C0.852353 17.2083 0.938208 17.3563 1.03047 17.4985C1.12274 17.6406 1.22141 17.777 1.32674 17.9076C1.43196 18.0381 1.54387 18.163 1.66204 18.282C1.78037 18.4012 1.90519 18.5145 2.03673 18.6223C2.16982 18.7313 2.30818 18.8338 2.45128 18.9292C2.58409 19.018 2.71551 19.0994 2.84789 19.174C2.98025 19.2487 3.11378 19.3163 3.25102 19.378C3.38826 19.4395 3.52897 19.4949 3.67596 19.5448C3.82293 19.5947 3.97607 19.639 4.13791 19.6783C4.29976 19.7177 4.47108 19.7521 4.65241 19.7823C4.83373 19.8124 5.02755 19.8383 5.23464 19.8605C5.44172 19.8827 5.66264 19.901 5.90002 19.9165C6.13741 19.9319 6.39114 19.9441 6.66376 19.954C7.08491 19.9692 7.72243 19.9781 8.45759 19.9816L10.8376 19.9767L13.0912 19.9452L13.9482 19.921L14.5064 19.8924C14.6262 19.8826 14.7434 19.871 14.8566 19.8576C14.9698 19.8441 15.0814 19.8287 15.1901 19.811C15.2987 19.7935 15.405 19.774 15.5093 19.7522C15.6125 19.7306 15.7151 19.7066 15.8171 19.6802C15.918 19.6545 16.0176 19.6253 16.1162 19.5944C16.2147 19.5635 16.3123 19.5301 16.4093 19.4941C16.5068 19.458 16.6033 19.4195 16.699 19.3788C16.7952 19.3377 16.8914 19.294 16.9879 19.2474C17.1361 19.176 17.2554 19.1165 17.3601 19.0584C17.4587 19.0044 17.5536 18.944 17.6443 18.8774C17.7337 18.8116 17.8226 18.7366 17.9251 18.6422C18.0276 18.5477 18.1439 18.434 18.2876 18.2901C18.4141 18.1637 18.5207 18.0538 18.6126 17.954C18.7046 17.8541 18.7821 17.7642 18.85 17.6776C18.9147 17.5953 18.975 17.5098 19.0307 17.4212C19.085 17.3347 19.135 17.2448 19.1858 17.1452C19.2625 16.9953 19.3307 16.8565 19.3916 16.7224C19.4509 16.5934 19.5051 16.4619 19.554 16.3285C19.6022 16.1962 19.644 16.0616 19.6791 15.9252C19.7152 15.7849 19.7464 15.6367 19.7733 15.4742C19.8001 15.3117 19.8229 15.1349 19.8426 14.9374C19.8623 14.7401 19.8791 14.5217 19.8939 14.2766L19.933 13.4534L19.9665 12.4297L19.9905 11.2893L19.9997 10.0968L19.9783 7.75459L19.9497 6.70554L19.9107 5.80482L19.8619 5.10258C19.8443 4.90716 19.8251 4.75326 19.805 4.64921C19.7825 4.53423 19.7575 4.4198 19.7298 4.30597C19.7029 4.19522 19.6733 4.08514 19.6411 3.97582C19.6097 3.8693 19.5755 3.76361 19.5387 3.65884C19.5023 3.55537 19.4637 3.45407 19.4233 3.35496C19.383 3.25583 19.3393 3.15902 19.2939 3.06426C19.2483 2.9695 19.2007 2.87704 19.1507 2.78669C19.1005 2.69636 19.0484 2.60826 18.9939 2.52233C18.9394 2.43641 18.8826 2.35266 18.8234 2.27116C18.7647 2.18993 18.7033 2.11055 18.6396 2.03314C18.5761 1.95616 18.5102 1.8812 18.4421 1.80837C18.374 1.73565 18.3036 1.66509 18.2311 1.59682C18.1584 1.52851 18.0837 1.46239 18.0066 1.39844C17.9291 1.33429 17.8498 1.27256 17.7684 1.21334C17.6864 1.15351 17.6025 1.09621 17.5168 1.0415C17.43 0.986008 17.3416 0.933104 17.2516 0.882854C17.1602 0.831763 17.0672 0.783304 16.973 0.737538C16.8165 0.661484 16.6718 0.594017 16.5298 0.534174C16.3901 0.474783 16.2477 0.422034 16.1032 0.376108C15.9577 0.330295 15.8064 0.29102 15.6398 0.257126C15.4732 0.223231 15.2915 0.194976 15.0859 0.170948C14.8804 0.146922 14.6508 0.127508 14.3882 0.111362C14.1257 0.0952156 13.8303 0.0825283 13.4931 0.0722768L12.3471 0.0466483L10.8967 0.0295411L9.03937 0.0181357L9.03873 0.0180086ZM10.0033 1.78012L12.6817 1.79537L13.6922 1.81484C13.9704 1.82266 14.1827 1.83183 14.3072 1.8424C14.4694 1.85605 14.6237 1.87315 14.7715 1.89366C14.9132 1.91323 15.0543 1.93757 15.1943 1.96664C15.3289 1.99483 15.4572 2.02686 15.5801 2.063C15.7029 2.09914 15.8202 2.13964 15.9327 2.18441C16.0454 2.2292 16.153 2.27847 16.2566 2.33243C16.3594 2.38597 16.4593 2.44489 16.5558 2.50894C16.6519 2.57269 16.7446 2.64139 16.8346 2.71539C16.9244 2.78939 17.0116 2.86871 17.0968 2.95354C17.1868 3.04305 17.2697 3.13422 17.3461 3.22827C17.4222 3.32176 17.4927 3.41973 17.5571 3.52166C17.6222 3.62505 17.6808 3.73237 17.7327 3.84298C17.7858 3.95576 17.8334 4.07493 17.8762 4.20159C17.9191 4.32827 17.9572 4.46289 17.9909 4.60673C18.0264 4.75923 18.0559 4.91301 18.0798 5.06773C18.1054 5.23176 18.1273 5.40668 18.1459 5.59396C18.1644 5.78123 18.1798 5.98096 18.1925 6.19464C18.2026 6.36602 18.2115 6.59221 18.219 6.85932L18.2377 7.77011L18.2521 10.0011L18.2358 12.23L18.2162 13.1381L18.1891 13.7986C18.1705 14.108 18.1508 14.368 18.1272 14.5942C18.1154 14.7074 18.1025 14.8122 18.0883 14.9103C18.075 15.0031 18.0591 15.0955 18.0409 15.1874C18.0243 15.2713 18.005 15.3547 17.9829 15.4374C17.9619 15.5162 17.9382 15.5944 17.9119 15.6717C17.8854 15.7494 17.8566 15.8262 17.8255 15.902C17.7926 15.9823 17.7579 16.0616 17.7214 16.1402C17.6889 16.2103 17.6547 16.2787 17.6186 16.3451C17.5829 16.4109 17.5448 16.4753 17.5048 16.5385C17.4651 16.6012 17.4234 16.662 17.3798 16.7209C17.3365 16.7795 17.2911 16.8366 17.2436 16.892C17.1964 16.9473 17.1471 17.0006 17.0958 17.0523C17.0446 17.1038 16.9914 17.1535 16.9362 17.2016C16.8812 17.2496 16.824 17.2959 16.7648 17.3403C16.7058 17.3848 16.6446 17.4274 16.5814 17.4683C16.518 17.5092 16.4529 17.5484 16.3855 17.5859C16.3182 17.6233 16.2487 17.659 16.1773 17.693C16.1046 17.7276 16.0309 17.7599 15.9562 17.7901C15.8791 17.8212 15.8012 17.8501 15.7225 17.8769C15.5622 17.9315 15.3933 17.9794 15.2154 18.0206C15.0301 18.0635 14.843 18.0985 14.6547 18.1256C14.5822 18.1362 14.4158 18.1462 14.1775 18.1553L13.2692 18.1806L10.6942 18.2141L7.9989 18.2183L6.94043 18.207L6.25312 18.1856L5.74632 18.1499C5.58896 18.1367 5.44261 18.122 5.3055 18.1052C5.16839 18.0885 5.04069 18.0699 4.92055 18.0488C4.80671 18.0292 4.69355 18.0056 4.58129 17.9784C4.47893 17.9535 4.37761 17.9245 4.27759 17.8915C4.18116 17.8594 4.08896 17.8241 3.99926 17.7853C3.90955 17.7466 3.82241 17.7041 3.73611 17.6577C3.6498 17.6113 3.5644 17.561 3.47802 17.506C3.41287 17.4646 3.34989 17.4227 3.28928 17.3784C3.22866 17.334 3.17009 17.2896 3.11372 17.2433C3.05733 17.1969 3.00319 17.1491 2.95097 17.0999C2.89909 17.0509 2.84901 17.0001 2.80079 16.9476C2.75273 16.8951 2.70679 16.8412 2.66271 16.7853C2.61846 16.7292 2.57629 16.6715 2.5363 16.6123C2.49571 16.5522 2.4573 16.4906 2.42116 16.4278C2.38464 16.3644 2.34991 16.2988 2.31691 16.231C2.28336 16.1621 2.25205 16.0921 2.22305 16.0212C2.19358 15.9488 2.16564 15.8742 2.13937 15.7973C2.08683 15.6431 2.04071 15.4791 2.00059 15.3042C1.96048 15.1294 1.92626 14.9435 1.8973 14.7455C1.86834 14.5476 1.84502 14.3376 1.82644 14.1145C1.81273 13.9502 1.80184 13.6942 1.79351 13.3713L1.77608 12.2228L1.78248 9.29502L1.83291 6.49737L1.87136 5.51169L1.89314 5.18587C1.90071 5.09887 1.90853 5.03441 1.91653 4.99571C1.94293 4.8684 1.96951 4.74993 1.997 4.63902C2.02268 4.53439 2.05125 4.4305 2.08266 4.32744C2.11252 4.23018 2.14398 4.13907 2.17762 4.05276C2.21005 3.96915 2.24621 3.88704 2.28597 3.80666C2.32479 3.7285 2.36651 3.65365 2.4118 3.5808C2.45711 3.50796 2.506 3.43729 2.5593 3.367C2.61261 3.29671 2.67001 3.22732 2.73248 3.15697C2.79496 3.08662 2.86243 3.01557 2.93559 2.94233C3.02087 2.85657 3.10966 2.77437 3.20175 2.69597C3.28871 2.622 3.37937 2.55251 3.47341 2.4878C3.56587 2.42372 3.66071 2.36671 3.75944 2.31429C3.85818 2.26189 3.96082 2.21452 4.06878 2.17193C4.17673 2.12932 4.29015 2.09119 4.41027 2.05659C4.5365 2.02119 4.66411 1.99098 4.79279 1.96605C4.92811 1.93954 5.07183 1.9164 5.22528 1.89622C5.37873 1.87604 5.54198 1.85861 5.71653 1.84348C5.83826 1.83298 6.04803 1.82362 6.32425 1.81575L7.32954 1.79589L10.0038 1.77954L10.0033 1.78012Z" fill="url(#paint2_radial_192_372)"/>
<defs>
<radialGradient id="paint0_radial_192_372" cx="0" cy="0" r="1" gradientUnits="userSpaceOnUse" gradientTransform="translate(3.18632 21.4369) rotate(-9.53101) scale(42.2692 25.6571)">
<stop stop-color="#FED576"/>
<stop offset="0.263" stop-color="#F47133"/>
<stop offset="0.609" stop-color="#BC3081"/>
<stop offset="1" stop-color="#4C63D2"/>
</radialGradient>
<radialGradient id="paint1_radial_192_372" cx="0" cy="0" r="1" gradientUnits="userSpaceOnUse" gradientTransform="translate(3.18635 21.437) rotate(-9.53102) scale(42.2692 25.6571)">
<stop stop-color="#FED576"/>
<stop offset="0.263" stop-color="#F47133"/>
<stop offset="0.609" stop-color="#BC3081"/>
<stop offset="1" stop-color="#4C63D2"/>
</radialGradient>
<radialGradient id="paint2_radial_192_372" cx="0" cy="0" r="1" gradientUnits="userSpaceOnUse" gradientTransform="translate(3.1863 21.4369) rotate(-9.53101) scale(42.2692 25.6571)">
<stop stop-color="#FED576"/>
<stop offset="0.263" stop-color="#F47133"/>
<stop offset="0.609" stop-color="#BC3081"/>
<stop offset="1" stop-color="#4C63D2"/>
</radialGradient>
</defs>
</svg>
