<svg width="27" height="27" viewBox="0 0 27 27" fill="none" xmlns="http://www.w3.org/2000/svg">
<path d="M13.5 20.8636C9.43317 20.8636 6.13636 17.5668 6.13636 13.5C6.13636 9.43317 9.43317 6.13636 13.5 6.13636C17.5668 6.13636 20.8636 9.43317 20.8636 13.5C20.8636 17.5668 17.5668 20.8636 13.5 20.8636ZM13.5 18.4091C16.2112 18.4091 18.4091 16.2112 18.4091 13.5C18.4091 10.7888 16.2112 8.59091 13.5 8.59091C10.7888 8.59091 8.59091 10.7888 8.59091 13.5C8.59091 16.2112 10.7888 18.4091 13.5 18.4091ZM12.2727 0H14.7273V3.68182H12.2727V0ZM12.2727 23.3182H14.7273V27H12.2727V23.3182ZM3.08625 4.82187L4.82187 3.08625L7.42531 5.68969L5.68969 7.42531L3.08625 4.82187ZM19.5746 21.3104L21.3104 19.5746L23.9138 22.1782L22.1782 23.9138L19.5746 21.3104ZM22.1782 3.08625L23.9138 4.82187L21.3104 7.42531L19.5746 5.68969L22.1782 3.08625ZM5.68969 19.5746L7.42531 21.3104L4.82187 23.9138L3.08625 22.1782L5.68969 19.5746ZM27 12.2727V14.7273H23.3182V12.2727H27ZM3.68182 12.2727V14.7273H0V12.2727H3.68182Z" fill="black"/>
</svg>
