<svg width="23" height="20" viewBox="0 0 23 20" fill="none" xmlns="http://www.w3.org/2000/svg">
<mask id="mask0_192_374" style="mask-type:luminance" maskUnits="userSpaceOnUse" x="0" y="0" width="23" height="20">
<path d="M22.9871 0H0V20H22.9871V0Z" fill="white"/>
</mask>
<g mask="url(#mask0_192_374)">
<path d="M21.8586 18.709C21.9081 18.7096 21.9569 18.6997 22.0024 18.6801C22.0478 18.6606 22.0888 18.6317 22.1228 18.5953C22.1568 18.5587 22.1832 18.5157 22.2002 18.4683C22.2173 18.4211 22.2245 18.3708 22.2216 18.3206C22.2216 18.045 22.0588 17.9133 21.7246 17.9133H21.1846V19.356H21.3878V18.7271H21.6372L21.6429 18.7349L22.0303 19.356H22.2475L21.8307 18.7131L21.8586 18.709ZM21.6237 18.5646H21.3883V18.0769H21.6868C21.841 18.0769 22.0168 18.1026 22.0168 18.3086C22.0168 18.5456 21.8389 18.5646 21.6225 18.5646" fill="#0A66C2"/>
<path d="M16.5609 16.9012H13.6808V12.2984C13.6808 11.2009 13.6617 9.78796 12.183 9.78796C10.683 9.78796 10.4535 10.9838 10.4535 12.2185V16.9009H7.57353V7.43575H10.3383V8.72927H10.377C10.6537 8.24648 11.0535 7.8493 11.5339 7.58006C12.0143 7.31081 12.5572 7.17957 13.1049 7.20032C16.0239 7.20032 16.5621 9.15973 16.5621 11.7088L16.5609 16.9012ZM4.32397 6.14193C3.99342 6.142 3.67027 6.04203 3.3954 5.85466C3.12051 5.6673 2.90627 5.40096 2.77972 5.08932C2.65318 4.77768 2.62001 4.43475 2.68444 4.10389C2.74887 3.77303 2.90799 3.46909 3.14169 3.23052C3.37538 2.99194 3.67314 2.82945 3.99733 2.76357C4.32152 2.6977 4.65755 2.73142 4.96296 2.86045C5.26837 2.98949 5.52943 3.20805 5.71312 3.4885C5.89682 3.76895 5.9949 4.0987 5.99496 4.43603C5.995 4.66002 5.9518 4.88181 5.86784 5.08875C5.78389 5.29571 5.66083 5.48375 5.50567 5.64216C5.35051 5.80057 5.16627 5.92624 4.96351 6.01199C4.76075 6.09774 4.54345 6.14189 4.32397 6.14193ZM5.76395 16.9012H2.88099V7.43575H5.76395V16.9012ZM17.9967 0.00135143H1.4338C1.05787 -0.00297804 0.695618 0.145182 0.426676 0.413275C0.157732 0.681368 0.00409974 1.04746 -0.000488281 1.4311V18.4041C0.00394272 18.788 0.157484 19.1543 0.426418 19.4227C0.695352 19.6911 1.05769 19.8395 1.4338 19.8354H17.9967C18.3735 19.8402 18.7369 19.6922 19.0069 19.4239C19.2768 19.1555 19.4314 18.7887 19.4367 18.4041V1.42988C19.4313 1.04547 19.2765 0.678966 19.0066 0.410879C18.7366 0.142793 18.3734 -0.00494354 17.9967 0.000126304" fill="#0A66C2"/>
<path d="M21.6486 17.2708C21.2983 17.2742 20.9633 17.4191 20.7174 17.6738C20.4714 17.9285 20.3343 18.2723 20.336 18.6299C20.3377 18.9874 20.478 19.3298 20.7264 19.582C20.9748 19.8344 21.3109 19.9759 21.6614 19.9759C22.0118 19.9759 22.3478 19.8344 22.5962 19.582C22.8446 19.3298 22.985 18.9874 22.9867 18.6299C22.9884 18.2723 22.8513 17.9285 22.6053 17.6738C22.3593 17.4191 22.0245 17.2742 21.674 17.2708H21.6486ZM21.6486 19.821C21.4187 19.8251 21.1929 19.7592 20.9998 19.6321C20.8066 19.5052 20.6546 19.3224 20.5631 19.1073C20.4716 18.892 20.4447 18.6539 20.4858 18.4233C20.5269 18.1924 20.6341 17.9792 20.7939 17.8106C20.9537 17.642 21.1589 17.5255 21.3836 17.4759C21.6083 17.4263 21.8422 17.4459 22.0561 17.532C22.2699 17.6181 22.4539 17.7671 22.5846 17.9599C22.7156 18.1528 22.7874 18.3809 22.7912 18.6155C22.7912 18.6221 22.7912 18.6287 22.7912 18.6353C22.7978 18.943 22.6841 19.2408 22.4755 19.463C22.267 19.6852 21.9804 19.8138 21.6789 19.8205H21.6489" fill="#0A66C2"/>
</g>
</svg>
