<svg width="12" height="15" viewBox="0 0 12 15" fill="none" xmlns="http://www.w3.org/2000/svg">
<path d="M5.99999 13.0474L9.29979 9.63027C11.1223 7.74311 11.1223 4.68332 9.29979 2.79612C7.47739 0.90891 4.52261 0.90891 2.70016 2.79612C0.877719 4.68332 0.877719 7.74311 2.70016 9.63027L5.99999 13.0474ZM5.99999 15L1.75736 10.6066C-0.585786 8.18017 -0.585786 4.24622 1.75736 1.81981C4.1005 -0.606603 7.89946 -0.606603 10.2427 1.81981C12.5858 4.24622 12.5858 8.18017 10.2427 10.6066L5.99999 15ZM5.99999 7.59392C6.73639 7.59392 7.33332 6.97578 7.33332 6.21321C7.33332 5.45066 6.73639 4.8325 5.99999 4.8325C5.26359 4.8325 4.66666 5.45066 4.66666 6.21321C4.66666 6.97578 5.26359 7.59392 5.99999 7.59392ZM5.99999 8.97464C4.52723 8.97464 3.33333 7.73828 3.33333 6.21321C3.33333 4.68812 4.52723 3.45178 5.99999 3.45178C7.47272 3.45178 8.66665 4.68812 8.66665 6.21321C8.66665 7.73828 7.47272 8.97464 5.99999 8.97464Z" fill="black"/>
</svg>
