<svg width="15" height="15" viewBox="0 0 15 15" fill="none" xmlns="http://www.w3.org/2000/svg">
<path opacity="0.5" d="M11.2969 14.5H3.70312L7.5 8.87012L11.2969 14.5ZM7.08496 10.5059L5.30078 13.1602L4.77734 13.9385H10.2227L9.69922 13.1602L7.91504 10.5059L7.5 9.88867L7.08496 10.5059ZM2.61719 1.11816C0.567574 3.48865 0.567968 6.99651 2.61719 9.36719L2.20996 9.76953C-0.0683128 7.17639 -0.0687049 3.30872 2.20996 0.71582L2.61719 1.11816ZM12.7891 0.71582C15.0683 3.30889 15.0679 7.17623 12.7891 9.76953L12.3818 9.36719C14.4316 6.99634 14.432 3.48881 12.3818 1.11816L12.7891 0.71582ZM4.8623 3.33887C4.02799 4.46946 4.02838 6.01568 4.8623 7.14648L4.45215 7.55176C3.39398 6.19372 3.39359 4.29142 4.45215 2.93359L4.8623 3.33887ZM10.5469 2.93359C11.6059 4.29161 11.6056 6.19352 10.5469 7.55176L10.1367 7.14648C10.9711 6.01548 10.9715 4.46966 10.1367 3.33887L10.5469 2.93359ZM7.01367 4.76953C7.28123 4.50551 7.71779 4.50649 7.98535 4.77051C8.24979 5.03199 8.25066 5.45434 7.98633 5.71582C7.71865 5.98047 7.28135 5.98047 7.01367 5.71582C6.74934 5.45434 6.75021 5.03199 7.01465 4.77051L7.01367 4.76953Z" fill="black" stroke="black"/>
</svg>
