<svg width="27" height="23" viewBox="0 0 27 23" fill="none" xmlns="http://www.w3.org/2000/svg">
<path d="M11.0257 3.7041C12.4351 1.4797 14.9401 0 17.7955 0C22.2012 0 25.7727 3.52281 25.7727 7.86842C25.7727 9.17616 25.4493 10.4094 24.8769 11.4946C26.184 12.7087 27 14.4314 27 16.3421C27 20.0192 23.978 23 20.25 23H9.81818C4.39575 23 0 18.6643 0 13.3158C0 7.96735 4.39575 3.63158 9.81818 3.63158C10.227 3.63158 10.63 3.65623 11.0257 3.7041ZM13.568 4.36297C16.0374 5.37034 17.9994 7.34279 18.9707 9.80357C19.3849 9.72525 19.8126 9.68421 20.25 9.68421C21.1522 9.68421 22.0131 9.85877 22.7998 10.1756C23.1324 9.47502 23.3182 8.69313 23.3182 7.86842C23.3182 4.85992 20.8456 2.42105 17.7955 2.42105C16.099 2.42105 14.5811 3.17557 13.568 4.36297Z" fill="black"/>
</svg>
